<svg xmlns="http://www.w3.org/2000/svg" viewBox="0 0 840 300" role="img" aria-labelledby="title desc">
<title id="title">钢结构研究主题的原创抽象线稿</title>
<desc id="desc">几何化的钢桁架与结构节点示意，用于项目封面，并非真实工程设计图纸。</desc>
<defs>
<linearGradient id="bg" x1="0" y1="0" x2="1" y2="1"><stop stop-color="#0b1526"/><stop offset="1" stop-color="#1e3542"/></linearGradient>
<linearGradient id="glow" x1="0" x2="1"><stop stop-color="#38bdf8"/><stop offset="1" stop-color="#5eead4"/></linearGradient>
<radialGradient id="halo"><stop stop-color="#2dd4bf" stop-opacity=".18"/><stop offset="1" stop-color="#2dd4bf" stop-opacity="0"/></radialGradient>
<pattern id="grid" width="42" height="42" patternUnits="userSpaceOnUse"><path d="M42 0H0V42" fill="none" stroke="#64748b" stroke-opacity=".16" stroke-width="1"/></pattern>
</defs>
<rect width="840" height="300" fill="url(#bg)"/>
<rect width="840" height="300" fill="url(#grid)"/>
<ellipse cx="500" cy="140" rx="300" ry="190" fill="url(#halo)"/>
<g fill="none" stroke="#64748b" stroke-opacity=".32" stroke-width="1">
<path d="M62 250H781M62 45V260M62 45H781" stroke-dasharray="5 8"/>
<path d="M125 251V264M250 251V264M375 251V264M500 251V264M625 251V264M750 251V264"/>
</g>
<g transform="translate(75 35)" fill="none" stroke-linejoin="round" stroke-linecap="round">
<path d="M0 183H695M35 121H658" stroke="#7dd3fc" stroke-width="3"/>
<path d="M35 121 0 183 124 121 210 183 300 121 392 183 482 121 568 183 658 121 695 183" stroke="url(#glow)" stroke-width="2.7"/>
<path d="M35 121V183M124 121V183M210 121V183M300 121V183M392 121V183M482 121V183M568 121V183M658 121V183" stroke="#7dd3fc" stroke-width="1.6" stroke-opacity=".85"/>
<path d="M0 183 124 121 210 183 300 121 392 183 482 121 568 183 658 121 695 183" stroke="#38bdf8" stroke-opacity=".2" stroke-width="7"/>
<path d="M124 121 346 35 568 121" stroke="#a5f3fc" stroke-width="2.2"/>
<path d="M346 35V183M260 68 346 121 432 68" stroke="#5eead4" stroke-width="2" stroke-opacity=".8"/>
<path d="M35 122Q346 -7 658 122" stroke="#94a3b8" stroke-width="1" stroke-dasharray="7 6" stroke-opacity=".8"/>
<g fill="#5eead4" stroke="none">
<circle cx="35" cy="121" r="3.6"/><circle cx="124" cy="121" r="3.6"/><circle cx="210" cy="183" r="3.6"/><circle cx="300" cy="121" r="3.6"/><circle cx="346" cy="35" r="4"/><circle cx="392" cy="183" r="3.6"/><circle cx="482" cy="121" r="3.6"/><circle cx="568" cy="183" r="3.6"/><circle cx="658" cy="121" r="3.6"/>
</g>
</g>
<g font-family="Arial, sans-serif" font-size="11" letter-spacing="2.4" fill="#9cc8ca"><text x="38" y="28">STRUCTURAL STUDY</text><text x="796" y="279" text-anchor="end">CONCEPT / NOT TO SCALE</text></g>
<path d="M620 74h124v23M620 74l-19 23" stroke="#94a3b8" stroke-width="1" stroke-dasharray="4 4" fill="none"/>
<circle cx="601" cy="97" r="3" fill="#5eead4"/>
</svg>