<svg xmlns="http://www.w3.org/2000/svg" viewBox="0 0 840 300" role="img" aria-labelledby="title desc">
<title id="title">公路工程概预算主题的原创抽象线稿</title>
<desc id="desc">抽象道路曲线、等高线与路线标识形成的项目封面，不对应任何实际道路工程。</desc>
<defs>
<linearGradient id="bg" x1="0" y1="0" x2="1" y2="1"><stop stop-color="#0c1926"/><stop offset="1" stop-color="#183544"/></linearGradient>
<pattern id="grid" width="40" height="40" patternUnits="userSpaceOnUse"><path d="M40 0H0V40" fill="none" stroke="#64748b" stroke-opacity=".12"/></pattern>
</defs>
<rect width="840" height="300" fill="url(#bg)"/>
<rect width="840" height="300" fill="url(#grid)"/>
<g fill="none" stroke="#7dd3fc" stroke-opacity=".14" stroke-width="1.5">
<path d="M-60 80Q120 -35 280 90T640 92T910 0"/>
<path d="M-60 110Q120 -5 280 120T640 122T910 30"/>
<path d="M-60 140Q120 25 280 150T640 152T910 60"/>
<path d="M-60 170Q120 55 280 180T640 182T910 90"/>
<path d="M-60 200Q120 85 280 210T640 212T910 120"/>
<path d="M-60 230Q120 115 280 240T640 242T910 150"/>
</g>
<g fill="none">
<path d="M-38 281C174 332 225 235 320 164S570 -8 888 62" stroke="#0b1324" stroke-width="91"/>
<path d="M-38 281C174 332 225 235 320 164S570 -8 888 62" stroke="#64748b" stroke-width="78" opacity=".7"/>
<path d="M-38 281C174 332 225 235 320 164S570 -8 888 62" stroke="#152a39" stroke-width="72"/>
<path d="M-38 281C174 332 225 235 320 164S570 -8 888 62" stroke="#5eead4" stroke-width="1.8" stroke-dasharray="8 13"/>
<path d="M-38 245C174 296 225 199 320 128S570 -44 888 26" stroke="#7dd3fc" stroke-width="1.6" opacity=".9"/>
<path d="M-38 317C174 368 225 271 320 200S570 28 888 98" stroke="#7dd3fc" stroke-width="1.6" opacity=".9"/>
</g>
<g fill="none" stroke="#94a3b8" stroke-width="1" stroke-opacity=".85">
<circle cx="315" cy="167" r="24" stroke-dasharray="5 4"/>
<path d="M315 133v68M281 167h68M338 149l41-33h100" stroke-dasharray="3 4"/>
</g>
<circle cx="315" cy="167" r="4" fill="#5eead4"/>
<g font-family="Arial, sans-serif" font-size="11" letter-spacing="2.4" fill="#9cc8ca"><text x="38" y="28">INFRASTRUCTURE STUDY</text><text x="794" y="279" text-anchor="end">CONCEPT / NOT TO SCALE</text></g>
</svg>